<svg width="82" height="83" viewBox="0 0 82 83" fill="none" xmlns="http://www.w3.org/2000/svg">
<path d="M28 4C25 5 22.1 6.3 19.4 7.9C22.3 6.4 25.1 5.4 28 4Z" fill="black"/>
<path d="M71.7 60.7C72.1 60.1 72.6 59.6 73 59C75 56 76 53 77 50C78.7 43.7 78.8 37.5 77.2 31.4C79.1 41.4 77.3 52.2 71.7 60.7Z" fill="black"/>
<path d="M5.8 21.8C4.4 24.3 3.3 27 2.5 29.9C3.6 27.4 4.5 24.5 5.8 21.8Z" fill="black"/>
<path d="M48 3C49.7 3.2 51.3 3.5 52.9 3.9C50.2 3.1 47.5 2.5 44.8 2.2C45.9 2.4 46.9 2.7 48 3Z" fill="black"/>
<path d="M9.5 66.4C8.9 65.3 8.4 64.2 8 63C6 59 3 55 2 50C1 44 1 38 2 32C2.1 31.3 2.3 30.6 2.5 29.9C2.3 30.3 2.2 30.6 2 31C-1.4 43.6 2 56.6 9.5 66.4Z" fill="black"/>
<path d="M74 20C73.4 19.2 72.9 18.5 72.3 17.7C74.5 21.1 76.2 24.9 78 29C79.9 35.8 80 43.4 78.2 50.3C81.2 40.5 80.2 29.6 74 20Z" fill="black"/>
<path d="M52.9 3.89999C53.9 4.19999 55 4.59999 56 4.99999C59 5.99999 62 7.99999 65 9.99999C68.2 12.4 70.1 14.8 72.3 17.7C70.8 15.3 69.1 13 67 11C63.2 7.19999 58.2 5.09999 52.9 3.89999Z" fill="black"/>
<path d="M28 4C33.4 2.3 39.1 1.7 44.9 2.2C39.2 1.1 33.9 1.5 28 4Z" fill="black"/>
<path d="M15.2 10.8C16.5 9.69999 17.9 8.79999 19.4 7.89999C18.3 8.49999 17.1 9.19999 16 9.99999C15.7 10.3 15.5 10.5 15.2 10.8Z" fill="black"/>
<path d="M30.2 75.3C29.5 75.1 28.8 74.8 28.2 74.5C28.8 74.8 29.5 75.1 30.2 75.3Z" fill="black"/>
<path d="M78 51C78.1 50.8 78.1 50.5 78.2 50.3C75.2 60 68.4 68.5 59 73.6C68 69.2 75.1 61 78 51Z" fill="black"/>
<path d="M15.2 10.8C13.9 11.8 12.7 12.9 11.5 14.1C12.7 13 13.9 12 15.2 10.8Z" fill="black"/>
<path d="M22.3 77.6C27.9 80.7 34.2 82.4 40.9 82.2C34.5 82.2 28.1 80 22.3 77.6Z" fill="black"/>
<path d="M44 82C43.3 82.1 42.5 82.1 41.8 82.2C42.5 82.1 43.3 82.1 44 82Z" fill="black"/>
<path d="M21 77C21.4 77.2 21.9 77.4 22.3 77.6C17.3 74.8 13 71 9.5 66.5C12 70.9 16.2 74.6 21 77Z" fill="black"/>
<path d="M8 18C7.1 19.2 6.4 20.5 5.8 21.8C7.4 18.9 9.3 16.4 11.6 14.1C10.2 15.3 9 16.5 8 18Z" fill="black"/>
<path d="M49 2L48.1 1.1C40.7 -0.200002 33.4 0.699998 26.7 3.3C33.9 0.699998 41.6 0.0999976 49 2Z" fill="black"/>
<path d="M24.1 8C27 6.5 30.2 5.4 33.5 4.7C30 5.3 26.4 6.4 23 8C23.6 8 23.8 8 24.1 8Z" fill="black"/>
<path d="M26.8 3.3C11.9 8.8 0 22.7 0 39C1.3 22.7 12.3 9 26.8 3.3Z" fill="black"/>
<path d="M75.8 48.5C74.5 53.6 72.1 58.4 68.8 62.7C69.6 61.8 70.3 60.9 71 60C73.6 56.2 74.9 52.3 75.8 48.5Z" fill="black"/>
<path d="M76.9 40.4C76.8 41.8 76.7 43.3 76.5 44.7C76.7 43.8 76.8 43 76.9 42.1C77 41.4 77 40.9 76.9 40.4Z" fill="black"/>
<path d="M75.8 48.5C76.1 47.2 76.4 46 76.6 44.7C76.3 45.9 76.1 47.2 75.8 48.5Z" fill="black"/>
<path d="M7.2 50.5C6.9 48.3 6.6 46.1 6 44.2C6.3 46.3 6.7 48.5 7.2 50.5Z" fill="black"/>
<path d="M48 1L48.1 1.1C48.4 1.2 48.8 1.2 49.1 1.3C48.8 1.2 48.4 1.1 48 1Z" fill="black"/>
<path d="M52 2C51 1.7 50.1 1.5 49.1 1.3C54.3 2.7 59.1 5 63.4 7.8C60 5.3 56.3 3.1 52 2Z" fill="black"/>
<path d="M72 15C71.7 14.7 71.3 14.4 71 14.1C75.7 19.6 78.3 25.9 80 33C79 26 76 20 72 15Z" fill="black"/>
<path d="M69 12C67.2 10.5 65.4 9.09999 63.4 7.89999C66 9.89999 68.5 12.1 71 14.2C70.3 13.4 69.7 12.7 69 12Z" fill="black"/>
<path d="M66.9 72C67 71.9 67.1 71.8 67.2 71.7C67.1 71.8 67 71.9 66.9 72Z" fill="black"/>
<path d="M16.2 11.6C14.7 12.7 13.3 13.8 12 15C5.80001 22.1 2.60001 30.3 2.10001 38.7C3.10001 32.8 5.10001 26.9 8.00001 21C10.8 17.3 12.7 14.4 16.2 11.6Z" fill="black"/>
<path d="M17 11C16.7 11.2 16.5 11.4 16.2 11.6C20.6 8.30001 25.4 5.60001 30.6 4.10001C25.7 5.20001 20.9 8.10001 17 11Z" fill="black"/>
<path d="M71 18C65 11 59 6 50 4C44.2 2.1 37.5 2 31.7 3.8C33.1 3.4 34.5 3.2 36 3C49 2 62 8 71 18Z" fill="black"/>
<path d="M8 62C4.1 55.2 2.1 47.4 2 39.6C1.7 49.9 5.4 60.3 13 69C20 76 28 80 37 81C48 82 58.9 79 66.9 72C48.3 86.9 20.8 82.7 8 62Z" fill="black"/>
<path d="M57 68C54.1 69.3 51.2 70.4 48.2 71.1C51.2 70.5 54.2 69.5 57 68Z" fill="black"/>
<path d="M77 30C76 26 74 22 71 18C74 22.3 76.1 26.8 77.2 31.4C77.2 30.9 77.1 30.5 77 30Z" fill="black"/>
<path d="M31.7 3.8C31.3 3.9 31 4 30.6 4.1C30.7 4.1 30.9 4 31 4C31.2 3.9 31.5 3.9 31.7 3.8Z" fill="black"/>
<path d="M67.5 71.5C67.4 71.6 67.3 71.7 67.2 71.8C67.4 71.6 67.5 71.5 67.5 71.5Z" fill="black"/>
<path d="M8.99999 53C6.99999 47 7.99999 40 7.99999 34C7.99999 31 9.99999 29 11 26C14 20 18 16 24 12C28 10 32 9.00001 37 8.00001C43 7.00001 48 9.00001 53 10C58 11 61 15 64 19C66.7 21.7 69.4 24.8 71.2 28.4C67.6 19.9 60.7 12.6 52 9.00001C49 8.00001 46 8.00001 43 7.00001C33 6.00001 23 11 16 18C-0.900004 35.8 6.8 63.2 26.4 72.5C18.6 68.5 12.2 61.8 8.99999 53Z" fill="black"/>
<path d="M32 74C39 76 45 76 52 74C57 72 61 70 65 67C66.4 65.6 67.6 64.2 68.8 62.7C59.6 72.9 45.9 77.7 33 74C23.5 71.1 16.1 64.3 12 55.4C12.2 58.2 14 60.1 15 62C19 68 25 71 32 74Z" fill="black"/>
<path d="M12 55C12 55 11.9 55 11.8 55C11.9 55.1 11.9 55.3 12 55.4C12 55.3 12 55.2 12 55Z" fill="black"/>
<path d="M33.5 4.7C38 3.9 42.5 4 46.9 4.7C45.3 4.4 43.7 4.1 42 4C39.1 3.9 36.2 4.1 33.5 4.7Z" fill="black"/>
<path d="M35 9.00001C13 13 2 37 11 56C11 55.3 11.5 55.1 11.8 55C10.4 51.9 9.5 48.5 9 45C7 31 15 18 27 12C34 9.00001 42 8.00001 49 10C46.3 8.00001 40.2 8.10001 35 9.00001Z" fill="black"/>
<path d="M76 30C71.6 16.1 60 7.1 46.9 4.7C56.2 6.6 65 11.5 71 20C74.7 26.5 76.7 33 76.9 40.4C77.1 37 76.8 33.5 76 30Z" fill="black"/>
<path d="M73 34C72.7 32 72 30.2 71.2 28.4C72 30.4 72.7 32.4 73.1 34.5C73 34.3 73 34.2 73 34Z" fill="black"/>
<path d="M60 66C59 66.7 58 67.4 57 68C57.7 67.7 58.3 67.4 59 67C64 64 68 59 71 54C73.9 47.7 74.4 41 73.1 34.5C74.9 47.3 69.9 58.1 60 66Z" fill="black"/>
<path d="M50.3 10.4C49.9 10.3 49.4 10.1 49 10C49.4 10.3 49.7 10.6 50 11C50.2 11.2 50.4 11.4 50.5 11.5C50.7 11.6 51 11.7 51.2 11.8C51 11.4 50.6 10.8 50.3 10.4Z" fill="black"/>
<path d="M29.8 68.1C32.6 69.4 35.4 70.4 39 71C44 72 48 70 53 69C57 68 60 66 63 63C81 46 72 17 50 10C50 10 50.1 10.2 50.3 10.4C56.6 12.5 61.3 16.4 66 22C73 31 73.5 41.6 69.7 50.6C73.1 40.7 70.9 29.2 64 20C60.3 16.3 56 13.7 51.2 11.8C51.4 12.2 51.4 12.4 50.5 11.5C49 10.9 47.5 10.4 46 10C40 9 34 10 28 12C17.2 16.4 10.9 26.9 10 38.3C10 38.2 10 38.1 10 38C10.1 37.5 10.3 36.9 10.4 36.4C10.1 37.9 10 39.4 10 41C11 47 12 54 16 60C19 64 24 67 28 70C34 72 40 74 46 73C51 72 55 70 60 68C63 66 67 63 69 59C73 53 74 47 75 41C75 37 74 33 73 29C71 24 68 19 64 15C61 13 58 11 55 9C53.3 8.3 51.5 7.6 49.8 7C59 9.5 67.3 15.3 72 24L71 23C73 26 74 30 75 34C76.3 42.8 75 51.1 70.8 58C73 54.4 74.8 50.5 76 46C76 43 76 39 76 36C74 21 63 10 49 6C35 2 20 8 11 20C10.1 21.6 9.3 23.1 8.7 24.7C10.5 21.3 12.4 18.6 15 16C22.1 8.5 31.9 5.3 41.5 5.8C40.7 5.8 39.8 5.9 39 6C33 7 28 8 23 11C19 13 17 16 14 19C8.2 25.5 5.7 33.6 5.9 41.5C5.8 30.5 11.6 20.4 20 13C28 7 37 6 47 7C54 8 59 12 64 16C76 27 77 43 70 57C67 61 63 65 59 68C52 71 45 73 37 72C33.5 71.4 30.7 70.2 28 68.6C31.6 70.5 35.7 71.7 40 72C42.9 72 45.6 71.6 48.2 71C41.9 72.1 35.5 71 29.8 68.1ZM47 69C51.8 67.6 56.1 65.8 60 63.1C56.3 66 51.9 68.1 47 69ZM22 65C12 57 9 43 13 31C15 25.2 18.9 20.6 23.8 17.4C15.2 23.9 10.1 35.3 12 47C13.9 55.7 18.8 62.8 25.6 67.2C24.4 66.5 23.2 65.7 22 65ZM14.1 50.3C14.1 50.2 14 50.1 14 50C14 50.1 14 50.1 14.1 50.2V50.3ZM12.2 30.4C12.7 28.9 13.3 27.5 14 26C18 18 25 13 34 11C46.4 9.2 58.8 13 65 23.6C63.6 21.6 61.8 19.8 60 18C56 16 52 13 47 12C31.9 8.8 17.5 17.6 12.2 30.4Z" fill="black"/>
<path d="M3.99999 34C3.99999 34.1 3.99999 34.3 3.89999 34.4C3.99999 33.7 4.19999 33 4.39999 32.3C4.29999 32.9 4.09999 33.4 3.99999 34Z" fill="black"/>
<path d="M25 8C24.6 8 24.3 8 24.1 8C21.8 9.2 19.7 10.6 17.7 12.2C19.9 10.5 22.4 9.1 25 8Z" fill="black"/>
<path d="M8 23C6.5 26 5.6 28.4 4.8 31.1C7 23.6 11.7 17 17.7 12.2C13.8 15 10.5 18.6 8 23Z" fill="black"/>
<path d="M12 65C8 60 6 55 4 49C3.9 48.4 3.8 47.7 3.7 47.1C4 50.1 4.8 53.1 6 56C8 60 10 65 14 68C18 71 22 75 27 77C27.8 77.3 28.7 77.5 29.5 77.8C22.9 75.4 16.9 71.1 12 65Z" fill="black"/>
<path d="M3.9 34.4C3.1 38.5 2.9 42.7 3.6 47.1C3.2 43.1 3.4 38.9 3.9 34.4Z" fill="black"/>
<path d="M75 19C92.3 42 74.5 75.2 48.3 79.6C52.3 79 56.2 77.8 60 76C73 69 82 56 82 41C82 33 80 25 75 19Z" fill="black"/>
<path d="M34 75C31.3 74.5 28.7 73.6 26.4 72.5C29.9 74.3 33.6 75.5 37.5 76C35.3 76 32.6 75.9 30.2 75.3C38.3 78.1 47.5 78.2 56 75C57 74.6 58 74.1 59 73.5C53 76.4 46.1 77.5 39 76.2C47.5 77.1 56.4 74.9 64 69C67.1 66.7 69.7 63.9 71.7 60.7C62.6 72.6 48.3 78.8 34 75Z" fill="black"/>
<path d="M45 80C46.1 79.9 47.2 79.8 48.3 79.6C46.9 79.8 45.6 79.9 44.2 80C44.5 80 44.8 80 45 80Z" fill="black"/>
<path d="M44.3 80C39.4 79.9 34.4 79.2 29.5 77.8C34.2 79.5 39.2 80.2 44.3 80Z" fill="black"/>
<path d="M68.9 68.1C65.9 70.3 62.9 72.6 59.5 74.4C62.6 72.9 65.4 71.1 68 69C68.3 68.7 68.6 68.4 68.9 68.1Z" fill="black"/>
<path d="M59.5 74.4C58.2 75 56.9 75.6 55.5 76.2C55.7 76.2 55.8 76.1 56 76.1C57.2 75.5 58.4 75 59.5 74.4Z" fill="black"/>
<path d="M6 44C6 44.1 6 44.1 6.1 44.2C6.1 43.8 6 43.4 6 43C6 43.3 6 43.7 6 44Z" fill="black"/>
<path d="M50 78C51.9 77.5 53.7 76.8 55.5 76.1C48.7 78 42.8 79 36 78C31 77.2 25.9 75.6 21.5 72.7C30 78.3 40 79.8 50 78Z" fill="black"/>
<path d="M69.1 67.9C69 68 68.9 68 68.9 68.1C68.9 68.1 69 68 69.1 67.9C69 67.9 69 68 69.1 67.9Z" fill="black"/>
<path d="M69.1 67.9C72.7 64.1 76.2 59.5 78 54C76 59 72.1 62.9 69.1 67.9Z" fill="black"/>
<path d="M19 71C16.8 68.8 15.2 67.2 13.3 65.3C15 67.3 16.9 69.2 19 71Z" fill="black"/>
<path d="M19 71C19.8 71.6 20.6 72.2 21.5 72.7C20.6 72.2 19.8 71.6 19 71Z" fill="black"/>
<path d="M10.1 45.6C10.5 49 11.4 52.4 12.9 55.7C11.8 52.4 10.7 49 10.1 45.6Z" fill="black"/>
<path d="M13.1 56.2C13 56 13 55.9 12.9 55.7C12.9 55.8 13 55.9 13 56C13 56.1 13.1 56.1 13.1 56.2Z" fill="black"/>
<path d="M25 72V73C16.1 68.3 9.8 59.9 7.2 50.5C7.4 51.7 7.6 52.9 8 54C11.6 63.7 19.1 70.8 28.1 74.5C26.9 73.9 25.8 73.1 25 72Z" fill="black"/>
<path d="M13.3 65.3C9.3 60.5 6.4 55 5 48C6 53 8 59 11 63C11.8 63.8 12.6 64.6 13.3 65.3Z" fill="black"/>
<path d="M65 66C66.5 64.2 67.9 62.4 69.2 60.5C67.5 62.9 65.4 65 63 67C59 70 54 72 49 73C42 74 35 73 29 71C22.1 68 17.1 63.1 13.1 56.2C13.4 56.8 13.7 57.4 14 58C24 76 50 79 65 66Z" fill="black"/>
<path d="M10.1 45.6C9.8 43.1 9.7 40.7 9.9 38.3C9.6 40.8 9.7 43.2 10.1 45.6Z" fill="black"/>
<path d="M5 48C4.2 39.7 5.4 32.2 8.7 24.7C8.5 25.1 8.3 25.5 8 26C5 33 4 40 5 48Z" fill="black"/>
</svg>
